<svg xmlns="http://www.w3.org/2000/svg" viewBox="0 0 300 291.17"><defs><style>.cls-1{fill:#ff8200;}</style></defs><g id="Goal_2-Priorities"><path class="cls-1" d="M212.63,59.44a7.77,7.77,0,0,0-13.22,4.37,16,16,0,1,1-18.13-18.13,7.78,7.78,0,0,0,4.38-13.21L155.39,2.2a8,8,0,0,0-11,0L121.48,25.11a31.57,31.57,0,1,0-41.71,41.7L56.88,89.7a7.78,7.78,0,0,0,0,11l22.9,22.94a31.56,31.56,0,0,0-17.58,37,31.76,31.76,0,0,0,15.88,19.79L67.9,209.81a27,27,0,0,0,.9,23.38l16.63,39.33a6.78,6.78,0,0,0,.37.76,11.55,11.55,0,0,1,1.4,5.55v4.57a7.78,7.78,0,0,0,15.55,0v-4.58a27.12,27.12,0,0,0-3.14-12.63L83,226.85a7.51,7.51,0,0,0-.38-.8,11.45,11.45,0,0,1-.33-10.34l11-31.7a31.6,31.6,0,0,0,28.18-18.66l3.81,3.8v47.61a7.78,7.78,0,1,0,15.55,0V150.12a11.27,11.27,0,0,1,22.53,0v57.66a46.34,46.34,0,0,0,4.84,20.5l1.74,3.48a30.54,30.54,0,0,1,0,27.11l-4.76,9.52a17.44,17.44,0,0,0-1.82,7.74v7.27a7.78,7.78,0,0,0,15.55,0v-7.3a1.76,1.76,0,0,1,.16-.75l4.76-9.53a46.24,46.24,0,0,0,0-41l-1.74-3.49q-.45-.9-.84-1.83a36.5,36.5,0,0,0,18.4,5h0a17.32,17.32,0,0,0,17.3-17.3V182.38a31.54,31.54,0,0,0,3-58.76l22.91-23a7.84,7.84,0,0,0,0-10.94Zm-11.19,147.8A1.75,1.75,0,0,1,199.7,209a20.85,20.85,0,0,1-20.79-20.79V166.62a31.66,31.66,0,0,0,22.53,16.86Zm-3.19-83.85a7.78,7.78,0,0,0,6.6,13.22,16,16,0,1,1-13.62,13.64,7.79,7.79,0,0,0-6.53-8.84,7.52,7.52,0,0,0-1.15-.09,7.8,7.8,0,0,0-5.44,2.21,26.82,26.82,0,0,0-26-20.27H152a26.81,26.81,0,0,0-26.62,24l-3.7-3.71a7.79,7.79,0,0,0-5.49-2.31h0a7.77,7.77,0,0,0-7.69,8.91A16.05,16.05,0,0,1,94.88,168.3a16,16,0,1,1,0-31.73,7.78,7.78,0,0,0,6.65-13.21L73.36,95.2l28.15-28.13a7.78,7.78,0,0,0-6.59-13.22A16,16,0,0,1,81.29,26.73,16.47,16.47,0,0,1,104,26.67a16.12,16.12,0,0,1,4.52,13.55,7.77,7.77,0,0,0,13.2,6.64L149.9,18.71,166.29,35.1A31.58,31.58,0,0,0,197.15,90,31.75,31.75,0,0,0,210,78.79l16.4,16.39Z"/><path class="cls-1" d="M292.23,90H263.67a7.78,7.78,0,1,0,0,15.55h28.56a7.78,7.78,0,0,0,0-15.55Z"/><path class="cls-1" d="M258.51,50.81h0a7.76,7.76,0,0,0,3.88-1.05l24.77-14.29A7.77,7.77,0,0,0,279.39,22L254.63,36.3a7.78,7.78,0,0,0,3.88,14.51Z"/><path class="cls-1" d="M287.14,160.05l-24.83-14.32a7.77,7.77,0,0,0-10.6,2.92,7.79,7.79,0,0,0,2.9,10.59l24.75,14.28A7.78,7.78,0,0,0,290,170.67a7.77,7.77,0,0,0-2.84-10.62Z"/><path class="cls-1" d="M44.11,97.77A7.79,7.79,0,0,0,36.33,90H7.77a7.78,7.78,0,0,0,0,15.55H36.33A7.79,7.79,0,0,0,44.11,97.77Z"/><path class="cls-1" d="M12.84,35.48,37.58,49.76a7.83,7.83,0,0,0,3.89,1.05h0a7.82,7.82,0,0,0,6.72-3.89A7.77,7.77,0,0,0,45.37,36.3L20.6,22a7.77,7.77,0,0,0-7.76,13.47Z"/><path class="cls-1" d="M43.49,145a7.66,7.66,0,0,0-5.87.8L12.87,160.05a7.78,7.78,0,0,0,3.88,14.51h0a7.79,7.79,0,0,0,3.89-1L45.46,159.2a7.77,7.77,0,0,0-2-14.23Z"/></g></svg>