<?xml version="1.0" standalone="no"?>
<svg xmlns:xlink="http://www.w3.org/1999/xlink" id="wave" style="transform:rotate(0deg); transition: 0.3s" viewBox="0 0 1440 490" version="1.1" xmlns="http://www.w3.org/2000/svg"><defs><linearGradient id="sw-gradient-0" x1="0" x2="0" y1="1" y2="0"><stop stop-color="rgba(243, 106, 62, 1)" offset="0%"/><stop stop-color="rgba(255, 179, 11, 1)" offset="100%"/></linearGradient></defs><path style="transform:translate(0, 0px); opacity:1" fill="url(#sw-gradient-0)" d="M0,294L80,277.7C160,261,320,229,480,179.7C640,131,800,65,960,89.8C1120,114,1280,229,1440,294C1600,359,1760,376,1920,375.7C2080,376,2240,359,2400,294C2560,229,2720,114,2880,106.2C3040,98,3200,196,3360,196C3520,196,3680,98,3840,89.8C4000,82,4160,163,4320,187.8C4480,212,4640,180,4800,179.7C4960,180,5120,212,5280,187.8C5440,163,5600,82,5760,40.8C5920,0,6080,0,6240,73.5C6400,147,6560,294,6720,318.5C6880,343,7040,245,7200,228.7C7360,212,7520,278,7680,302.2C7840,327,8000,310,8160,269.5C8320,229,8480,163,8640,163.3C8800,163,8960,229,9120,285.8C9280,343,9440,392,9600,383.8C9760,376,9920,310,10080,253.2C10240,196,10400,147,10560,122.5C10720,98,10880,98,11040,155.2C11200,212,11360,327,11440,383.8L11520,441L11520,490L11440,490C11360,490,11200,490,11040,490C10880,490,10720,490,10560,490C10400,490,10240,490,10080,490C9920,490,9760,490,9600,490C9440,490,9280,490,9120,490C8960,490,8800,490,8640,490C8480,490,8320,490,8160,490C8000,490,7840,490,7680,490C7520,490,7360,490,7200,490C7040,490,6880,490,6720,490C6560,490,6400,490,6240,490C6080,490,5920,490,5760,490C5600,490,5440,490,5280,490C5120,490,4960,490,4800,490C4640,490,4480,490,4320,490C4160,490,4000,490,3840,490C3680,490,3520,490,3360,490C3200,490,3040,490,2880,490C2720,490,2560,490,2400,490C2240,490,2080,490,1920,490C1760,490,1600,490,1440,490C1280,490,1120,490,960,490C800,490,640,490,480,490C320,490,160,490,80,490L0,490Z"/></svg>