<?xml version="1.0" standalone="no"?>
<svg xmlns:xlink="http://www.w3.org/1999/xlink" id="wave" style="transform:rotate(180deg); transition: 0.3s" viewBox="0 0 1440 490" version="1.1" xmlns="http://www.w3.org/2000/svg"><defs><linearGradient id="sw-gradient-0" x1="0" x2="0" y1="1" y2="0"><stop stop-color="rgba(243, 106, 62, 1)" offset="0%"/><stop stop-color="rgba(255, 179, 11, 1)" offset="100%"/></linearGradient></defs><path style="transform:translate(0, 0px); opacity:1" fill="url(#sw-gradient-0)" d="M0,441L120,383.8C240,327,480,212,720,155.2C960,98,1200,98,1440,147C1680,196,1920,294,2160,318.5C2400,343,2640,294,2880,261.3C3120,229,3360,212,3600,236.8C3840,261,4080,327,4320,302.2C4560,278,4800,163,5040,130.7C5280,98,5520,147,5760,196C6000,245,6240,294,6480,294C6720,294,6960,245,7200,187.8C7440,131,7680,65,7920,57.2C8160,49,8400,98,8640,163.3C8880,229,9120,310,9360,326.7C9600,343,9840,294,10080,277.7C10320,261,10560,278,10800,269.5C11040,261,11280,229,11520,179.7C11760,131,12000,65,12240,32.7C12480,0,12720,0,12960,0C13200,0,13440,0,13680,24.5C13920,49,14160,98,14400,106.2C14640,114,14880,82,15120,57.2C15360,33,15600,16,15840,40.8C16080,65,16320,131,16560,171.5C16800,212,17040,229,17160,236.8L17280,245L17280,490L17160,490C17040,490,16800,490,16560,490C16320,490,16080,490,15840,490C15600,490,15360,490,15120,490C14880,490,14640,490,14400,490C14160,490,13920,490,13680,490C13440,490,13200,490,12960,490C12720,490,12480,490,12240,490C12000,490,11760,490,11520,490C11280,490,11040,490,10800,490C10560,490,10320,490,10080,490C9840,490,9600,490,9360,490C9120,490,8880,490,8640,490C8400,490,8160,490,7920,490C7680,490,7440,490,7200,490C6960,490,6720,490,6480,490C6240,490,6000,490,5760,490C5520,490,5280,490,5040,490C4800,490,4560,490,4320,490C4080,490,3840,490,3600,490C3360,490,3120,490,2880,490C2640,490,2400,490,2160,490C1920,490,1680,490,1440,490C1200,490,960,490,720,490C480,490,240,490,120,490L0,490Z"/><defs><linearGradient id="sw-gradient-1" x1="0" x2="0" y1="1" y2="0"><stop stop-color="rgba(243, 106, 62, 1)" offset="0%"/><stop stop-color="rgba(255, 179, 11, 1)" offset="100%"/></linearGradient></defs><path style="transform:translate(0, 50px); opacity:0.9" fill="url(#sw-gradient-1)" d="M0,147L120,147C240,147,480,147,720,163.3C960,180,1200,212,1440,261.3C1680,310,1920,376,2160,334.8C2400,294,2640,147,2880,73.5C3120,0,3360,0,3600,0C3840,0,4080,0,4320,32.7C4560,65,4800,131,5040,187.8C5280,245,5520,294,5760,261.3C6000,229,6240,114,6480,57.2C6720,0,6960,0,7200,40.8C7440,82,7680,163,7920,236.8C8160,310,8400,376,8640,408.3C8880,441,9120,441,9360,392C9600,343,9840,245,10080,171.5C10320,98,10560,49,10800,40.8C11040,33,11280,65,11520,89.8C11760,114,12000,131,12240,130.7C12480,131,12720,114,12960,106.2C13200,98,13440,98,13680,106.2C13920,114,14160,131,14400,130.7C14640,131,14880,114,15120,114.3C15360,114,15600,131,15840,179.7C16080,229,16320,310,16560,343C16800,376,17040,359,17160,351.2L17280,343L17280,490L17160,490C17040,490,16800,490,16560,490C16320,490,16080,490,15840,490C15600,490,15360,490,15120,490C14880,490,14640,490,14400,490C14160,490,13920,490,13680,490C13440,490,13200,490,12960,490C12720,490,12480,490,12240,490C12000,490,11760,490,11520,490C11280,490,11040,490,10800,490C10560,490,10320,490,10080,490C9840,490,9600,490,9360,490C9120,490,8880,490,8640,490C8400,490,8160,490,7920,490C7680,490,7440,490,7200,490C6960,490,6720,490,6480,490C6240,490,6000,490,5760,490C5520,490,5280,490,5040,490C4800,490,4560,490,4320,490C4080,490,3840,490,3600,490C3360,490,3120,490,2880,490C2640,490,2400,490,2160,490C1920,490,1680,490,1440,490C1200,490,960,490,720,490C480,490,240,490,120,490L0,490Z"/></svg>