<?xml version="1.0" standalone="no"?>
<svg xmlns:xlink="http://www.w3.org/1999/xlink" id="wave" style="transform:rotate(180deg); transition: 0.3s" viewBox="0 0 1440 490" version="1.1" xmlns="http://www.w3.org/2000/svg"><defs><linearGradient id="sw-gradient-0" x1="0" x2="0" y1="1" y2="0"><stop stop-color="rgba(243, 106, 62, 1)" offset="0%"/><stop stop-color="rgba(255, 179, 11, 1)" offset="100%"/></linearGradient></defs><path style="transform:translate(0, 0px); opacity:1" fill="url(#sw-gradient-0)" d="M0,147L120,122.5C240,98,480,49,720,81.7C960,114,1200,229,1440,294C1680,359,1920,376,2160,367.5C2400,359,2640,327,2880,310.3C3120,294,3360,294,3600,310.3C3840,327,4080,359,4320,310.3C4560,261,4800,131,5040,122.5C5280,114,5520,229,5760,269.5C6000,310,6240,278,6480,245C6720,212,6960,180,7200,179.7C7440,180,7680,212,7920,187.8C8160,163,8400,82,8640,40.8C8880,0,9120,0,9360,57.2C9600,114,9840,229,10080,253.2C10320,278,10560,212,10800,196C11040,180,11280,212,11520,236.8C11760,261,12000,278,12240,285.8C12480,294,12720,294,12960,318.5C13200,343,13440,392,13680,375.7C13920,359,14160,278,14400,228.7C14640,180,14880,163,15120,171.5C15360,180,15600,212,15840,220.5C16080,229,16320,212,16560,228.7C16800,245,17040,294,17160,318.5L17280,343L17280,490L17160,490C17040,490,16800,490,16560,490C16320,490,16080,490,15840,490C15600,490,15360,490,15120,490C14880,490,14640,490,14400,490C14160,490,13920,490,13680,490C13440,490,13200,490,12960,490C12720,490,12480,490,12240,490C12000,490,11760,490,11520,490C11280,490,11040,490,10800,490C10560,490,10320,490,10080,490C9840,490,9600,490,9360,490C9120,490,8880,490,8640,490C8400,490,8160,490,7920,490C7680,490,7440,490,7200,490C6960,490,6720,490,6480,490C6240,490,6000,490,5760,490C5520,490,5280,490,5040,490C4800,490,4560,490,4320,490C4080,490,3840,490,3600,490C3360,490,3120,490,2880,490C2640,490,2400,490,2160,490C1920,490,1680,490,1440,490C1200,490,960,490,720,490C480,490,240,490,120,490L0,490Z"/></svg>